<svg version="1.1"
      xmlns="http://www.w3.org/2000/svg"
      xmlns:xlink="http://www.w3.org/1999/xlink"  id="snapshot-00655" width="250" height="250" viewBox="0 0 250 250"><desc>This image was made on Patterninja.com</desc><defs>
<!-- image tmp-1 -->
<g id="transformed-tmp-1" data-image="tmp-1" transform="translate(155, 101) rotate(14, 80, 94)"><g><svg version="1.1" width="160px" height="188px" viewBox="0 0 160 188"><g id="original-tmp-1"><svg version="1.1" xmlns="http://www.w3.org/2000/svg" viewBox="0 0 41 48" xmlns:xlink="http://www.w3.org/1999/xlink" preserveAspectRatio="xMidYMid meet">
  <path d="M39.938 2.185h-6.326a.9.9 0 0 1 0-1.8h6.326a.9.9 0 0 1 0 1.8" fill-rule="evenodd" fill="rgba(103, 26, 29, 1)" stroke="none"/>
  <path d="M26.364 39.67c6.62-6.621 9.184-16.734 2.713-23.204-6.471-6.471-16.584-3.908-23.204 2.713C.554 24.498-.022 30.995 2.507 36.661c.393.88.52 1.857.396 2.845-.135 1.079.052 1.955.616 2.518.563.564 1.439.751 2.518.616.988-.124 1.965.003 2.845.396 5.666 2.529 12.163 1.953 17.482-3.366" fill-rule="evenodd" fill="rgba(255, 255, 255, 1)" stroke="none"/>
  <path d="M20.141 14.346c-5.537 0-10.025-6.015-10.025-6.015s4.488-6.014 10.025-6.014c5.536 0 10.024 6.014 10.024 6.014s-4.488 6.015-10.024 6.015" fill-rule="evenodd" fill="rgba(255, 255, 255, 1)" stroke="none"/>
  <path d="M30.165 8.331l5.319-1.172" fill-rule="evenodd" fill="rgba(45, 176, 141, 1)" stroke="none"/>
  <path d="M30.165 9.232a.902.902 0 0 1-.194-1.78L35.29 6.28a.899.899 0 1 1 .388 1.757L30.359 9.21a.862.862 0 0 1-.194.022" fill-rule="evenodd" fill="rgba(103, 26, 29, 1)" stroke="none"/>
  <path d="M29.243 42.55c6.621-6.62 9.185-16.733 2.714-23.204s-16.584-3.908-23.205 2.713c-5.318 5.319-5.895 11.816-3.365 17.482.393.88.52 1.857.396 2.845-.135 1.079.052 1.955.615 2.518.564.564 1.439.751 2.518.616.989-.124 1.966.003 2.846.396 5.665 2.529 12.163 1.953 17.481-3.366" fill-rule="evenodd" fill="rgba(254, 242, 125, 1)" stroke="none"/>
  <path d="M26.364 39.67h.007-.007zM6.755 41.694c.875 0 1.724.176 2.494.52 5.841 2.608 11.848 1.449 16.479-3.18 5.974-5.974 8.954-15.691 2.713-21.932-6.243-6.242-15.958-3.26-21.932 2.714C1.88 24.445.72 30.451 3.329 36.294c.452 1.012.613 2.162.467 3.325-.072.571-.068 1.343.359 1.769.427.426 1.198.43 1.77.359.278-.035.555-.053.83-.053zm8.673 3.702c-2.276 0-4.605-.508-6.913-1.539-.711-.317-1.529-.429-2.366-.324-1.762.219-2.748-.353-3.266-.872-.52-.519-1.093-1.507-.873-3.266.105-.837-.007-1.656-.325-2.367C-1.244 30.466.05 23.729 5.237 18.543c6.591-6.591 17.41-9.781 24.477-2.714 7.068 7.068 3.877 17.887-2.714 24.478-3.363 3.362-7.377 5.089-11.572 5.089z" fill-rule="evenodd" fill="rgba(103, 26, 29, 1)" stroke="none"/>
  <path d="M23.02 17.226c-5.536 0-10.024-6.014-10.024-6.014s4.488-6.015 10.024-6.015c5.537 0 10.025 6.015 10.025 6.015s-4.488 6.014-10.025 6.014" fill-rule="evenodd" fill="rgba(45, 176, 141, 1)" stroke="none"/>
  <path d="M11.277 8.331c1.214 1.412 4.788 5.115 8.864 5.115 4.075 0 7.647-3.701 8.862-5.115-1.215-1.413-4.787-5.115-8.862-5.115-4.088 0-7.652 3.701-8.864 5.115zm8.864 6.915c-5.92 0-10.552-6.116-10.747-6.376a.902.902 0 0 1 0-1.077c.195-.26 4.827-6.376 10.747-6.376 5.919 0 10.552 6.116 10.746 6.376a.902.902 0 0 1 0 1.077c-.194.26-4.827 6.376-10.746 6.376z" fill-rule="evenodd" fill="rgba(103, 26, 29, 1)" stroke="none"/>
  <path d="M36.649 4.961a.898.898 0 0 1-.869-1.136c.251-.924.378-1.778.378-2.54a.9.9 0 0 1 1.8 0c0 .921-.148 1.935-.442 3.012a.899.899 0 0 1-.867.664" fill-rule="evenodd" fill="rgba(103, 26, 29, 1)" stroke="none"/>
  <path d="M30.165 16.278a.9.9 0 0 1-.685-1.484c.032-.037 3.232-3.82 5.189-8.015a.9.9 0 0 1 1.631.76c-2.062 4.422-5.312 8.261-5.45 8.422a.897.897 0 0 1-.685.317" fill-rule="evenodd" fill="rgba(103, 26, 29, 1)" stroke="none"/>
  <path d="M25.871 31.039a.901.901 0 0 1-.848-1.199c.626-1.781 1.273-5.174-1.436-7.883a.9.9 0 1 1 1.272-1.273c2.488 2.488 3.167 6.043 1.861 9.753a.901.901 0 0 1-.849.602" fill-rule="evenodd" fill="rgba(103, 26, 29, 1)" stroke="none"/>
  <path d="M22.595 36.143a.901.901 0 0 1-.637-1.537c.44-.439.853-.912 1.227-1.404a.9.9 0 1 1 1.433 1.089c-.424.557-.89 1.092-1.387 1.588a.897.897 0 0 1-.636.264" fill-rule="evenodd" fill="rgba(103, 26, 29, 1)" stroke="none"/>
</svg>
</g></svg></g></g>
<!-- /image tmp-1 -->

<!-- image tmp-2 -->
<g id="transformed-tmp-2" data-image="tmp-2" transform="translate(77, 17) rotate(0, 37, 45)"><g><svg version="1.1" width="74px" height="90px" viewBox="0 0 74 90"><g id="original-tmp-2"><svg version="1.1" xmlns="http://www.w3.org/2000/svg" viewBox="0 0 40 48" xmlns:xlink="http://www.w3.org/1999/xlink"  preserveAspectRatio="xMidYMid meet">
  <path d="M21.407 1.667c-2.959 1.247-4.003 5.474-4.003 5.474s3.754 2.203 6.713.956c2.959-1.247 4.003-5.473 4.003-5.473S24.366.42 21.407 1.667" fill-rule="evenodd" fill="rgba(255, 255, 255, 1)" stroke="none"/>
  <path d="M24.287 4.547c-2.959 1.247-4.003 5.473-4.003 5.473s3.754 2.204 6.713.957C29.956 9.73 31 5.503 31 5.503s-3.754-2.203-6.713-.956" fill-rule="evenodd" fill="rgba(45, 176, 141, 1)" stroke="none"/>
  <path d="M18.49 6.683c1.1.507 3.428 1.364 5.278.585 1.849-.78 2.861-3.044 3.266-4.187-1.1-.507-3.428-1.363-5.277-.585-1.85.78-2.861 3.045-3.267 4.187zm3.604 2.695c-2.618 0-5.016-1.385-5.146-1.461a.9.9 0 0 1-.418-.992c.047-.191 1.191-4.681 4.528-6.087 3.334-1.405 7.349.91 7.518 1.009a.902.902 0 0 1 .419.993c-.048.19-1.192 4.68-4.529 6.086-.772.326-1.582.452-2.372.452z" fill-rule="evenodd" fill="rgba(103, 26, 29, 1)" stroke="none"/>
  <path d="M18.335 44.315a.982.982 0 0 0 1.103 0c3.345-2.266 15.165-2.791 17.169-15.346 2.271-14.225-9.812-21.992-17.721-14.992-7.908-7-19.991.767-17.72 14.992C3.17 41.524 14.99 42.049 18.335 44.315" fill-rule="evenodd" fill="rgba(255, 255, 255, 1)" stroke="none"/>
  <path d="M21.214 47.196a.987.987 0 0 0 1.104 0c3.345-2.267 15.165-2.792 17.169-15.347 2.271-14.225-9.812-21.992-17.721-14.992-7.908-7-19.991.767-17.72 14.992C6.05 44.404 17.87 44.929 21.214 47.196" fill-rule="evenodd" fill="rgba(241, 169, 109, 1)" stroke="none"/>
  <path d="M18.839 43.57c.029.02.067.02.095 0 .877-.594 2.185-1.051 3.699-1.58 4.91-1.716 11.633-4.067 13.086-13.163 1.315-8.244-2.397-13.464-5.976-15.43-3.415-1.876-7.252-1.407-10.26 1.254a.899.899 0 0 1-1.193 0c-3.007-2.662-6.843-3.131-10.26-1.254-3.579 1.966-7.291 7.186-5.976 15.431 1.453 9.095 8.176 11.446 13.085 13.162 1.515.529 2.823.986 3.7 1.58zm.047 1.817c-.367 0-.735-.109-1.056-.326v-.001c-.683-.462-1.889-.883-3.284-1.371C9.815 42.035 1.898 39.268.277 29.111c-1.205-7.545 1.499-14.333 6.886-17.292 3.829-2.102 8.254-1.71 11.723.989 3.468-2.699 7.896-3.092 11.724-.989 5.387 2.959 8.09 9.747 6.886 17.292-1.621 10.157-9.539 12.924-14.269 14.578-1.395.488-2.601.909-3.284 1.371a1.878 1.878 0 0 1-1.057.327z" fill-rule="evenodd" fill="rgba(103, 26, 29, 1)" stroke="none"/>
  <path d="M18.886 36.745c-3.14 0-7.123-4.153-7.123-8.82 0-2.606.608-4.789 1.759-6.313a.9.9 0 1 1 1.437 1.084c-.913 1.21-1.396 3.018-1.396 5.229 0 4.056 3.501 7.02 5.323 7.02 1.823 0 5.324-2.964 5.324-7.02 0-2.622-.691-7.02-5.324-7.02a.9.9 0 0 1 0-1.8c4.461 0 7.124 3.297 7.124 8.82 0 4.667-3.983 8.82-7.124 8.82" fill-rule="evenodd" fill="rgba(103, 26, 29, 1)" stroke="none"/>
  <path d="M20.385 30.855a.9.9 0 0 1-.869-1.134 6.949 6.949 0 0 0 .239-1.796c0-1.058-.111-2.032-.331-2.897a.9.9 0 1 1 1.743-.444c.258 1.009.388 2.133.388 3.341 0 .755-.101 1.517-.301 2.263a.901.901 0 0 1-.869.667" fill-rule="evenodd" fill="rgba(103, 26, 29, 1)" stroke="none"/>
  <path d="M12.367 2.485a.895.895 0 0 1-.495-.149 6.5 6.5 0 0 0-.433-.262.9.9 0 0 1 .866-1.578c.179.098.366.211.558.338a.9.9 0 0 1-.496 1.651" fill-rule="evenodd" fill="rgba(103, 26, 29, 1)" stroke="none"/>
  <path d="M18.945 14.877a.9.9 0 0 1-.9-.9c0-4.828-2.79-8.407-3.99-9.722a.9.9 0 0 1 1.33-1.214c1.341 1.47 4.46 5.478 4.46 10.936a.9.9 0 0 1-.9.9" fill-rule="evenodd" fill="rgba(103, 26, 29, 1)" stroke="none"/>
</svg>
</g></svg></g></g>
<!-- /image tmp-2 -->
</defs><rect x="0" y="0" width="250" height="250" fill="rgba(196, 63, 63, 1)"></rect><use xlink:href="#transformed-tmp-1" transform="translate(-250, -250)"></use><use xlink:href="#transformed-tmp-1" transform="translate(0, -250)"></use><use xlink:href="#transformed-tmp-1" transform="translate(250, -250)"></use><use xlink:href="#transformed-tmp-1" transform="translate(-250, 0)"></use><use xlink:href="#transformed-tmp-1" transform="translate(0, 0)"></use><use xlink:href="#transformed-tmp-1" transform="translate(250, 0)"></use><use xlink:href="#transformed-tmp-1" transform="translate(-250, 250)"></use><use xlink:href="#transformed-tmp-1" transform="translate(0, 250)"></use><use xlink:href="#transformed-tmp-1" transform="translate(250, 250)"></use><use xlink:href="#transformed-tmp-2" transform="translate(-250, -250)"></use><use xlink:href="#transformed-tmp-2" transform="translate(0, -250)"></use><use xlink:href="#transformed-tmp-2" transform="translate(250, -250)"></use><use xlink:href="#transformed-tmp-2" transform="translate(-250, 0)"></use><use xlink:href="#transformed-tmp-2" transform="translate(0, 0)"></use><use xlink:href="#transformed-tmp-2" transform="translate(250, 0)"></use><use xlink:href="#transformed-tmp-2" transform="translate(-250, 250)"></use><use xlink:href="#transformed-tmp-2" transform="translate(0, 250)"></use><use xlink:href="#transformed-tmp-2" transform="translate(250, 250)"></use></svg>