<svg t="1707894722255" class="icon" viewBox="0 0 1251 1024" version="1.1" xmlns="http://www.w3.org/2000/svg" p-id="4317" width="200" height="200"><path d="M236.8 520.021333C305.777778 315.420444 530.204444 204.629333 738.048 272.184889c208.270222 67.669333 321.422222 288.568889 252.359111 493.482667-6.741333 19.996444-15.075556 39.338667-24.888889 57.884444a35.555556 35.555556 0 1 1-62.862222-33.28c8.049778-15.160889 14.848-30.947556 20.366222-47.303111 56.32-167.168-36.096-347.648-206.933333-403.143111-171.008-55.580444-355.441778 35.441778-411.904 202.922666a313.742222 313.742222 0 0 0-12.572445 50.773334 35.555556 35.555556 0 1 1-70.229333-11.235556c3.384889-21.020444 8.533333-41.841778 15.416889-62.293333zM311.751111 682.808889c14.307556 116.024889 95.744 215.096889 211.768889 252.643555 113.749333 36.750222 237.056 6.798222 319.715556-74.040888l6.456888-6.485334 51.2 49.351111c-101.376 105.159111-256.483556 144.952889-399.246222 98.816-139.377778-45.084444-238.478222-162.986667-259.242666-302.449777l-1.223112-9.102223 70.542223-8.732444z" fill="#ffffff" p-id="4318"></path><path d="M25.884444 440.945778c21.390222-65.137778 106.467556-91.676444 233.016889-88.519111a35.555556 35.555556 0 1 1-1.792 71.111111c-97.393778-2.446222-155.875556 15.786667-163.697777 39.623111-20.394667 62.008889 185.372444 207.644444 466.830222 303.502222l11.747555 3.982222c287.516444 95.744 545.564444 103.395556 566.186667 40.760889 7.964444-24.177778-28.814222-74.467556-109.482667-131.413333a35.555556 35.555556 0 1 1 41.016889-58.083556c104.419556 73.699556 157.496889 146.375111 136.021334 211.712-40.106667 121.998222-329.130667 113.408-656.213334 4.465778l-23.182222-7.850667C211.626667 721.351111-13.226667 559.786667 25.884444 440.945778zM1137.208889 319.146667c18.403556 0 33.564444 13.966222 35.384889 31.886222l0.170666 3.640889v112.128a35.555556 35.555556 0 0 1-70.940444 3.640889l-0.170667-3.640889v-112.128c0-19.626667 15.928889-35.555556 35.555556-35.555556z" fill="#ffffff" p-id="4319"></path><path d="M1193.244444 375.182222a35.555556 35.555556 0 0 1 3.640889 70.940445l-3.612444 0.199111H1081.173333a35.555556 35.555556 0 0 1-3.640889-70.940445l3.640889-0.170666h112.071111zM994.190222 145.464889c18.432 0 33.564444 13.994667 35.384889 31.914667l0.170667 3.640888v116.252445a35.555556 35.555556 0 0 1-70.912 3.640889l-0.199111-3.640889V181.020444c0-19.626667 15.928889-35.555556 35.555555-35.555555z" fill="#ffffff" p-id="4320"></path><path d="M1050.282667 203.605333a35.555556 35.555556 0 0 1 3.612444 70.940445l-3.612444 0.170666h-112.128a35.555556 35.555556 0 0 1-3.612445-70.912l3.612445-0.199111h112.128zM472.376889 3.328c18.432 0 33.564444 13.994667 35.384889 31.943111l0.170666 3.612445v116.280888a35.555556 35.555556 0 0 1-70.912 3.640889l-0.199111-3.640889V38.883556c0-19.626667 15.928889-35.555556 35.555556-35.555556z" fill="#ffffff" p-id="4321"></path><path d="M528.440889 61.468444a35.555556 35.555556 0 0 1 3.640889 70.940445l-3.640889 0.170667h-112.071111a35.555556 35.555556 0 0 1-3.640889-70.912l3.640889-0.199112h112.071111z" fill="#ffffff" p-id="4322"></path></svg>
